<svg width="221" height="140" viewBox="0 0 221 140" fill="none" xmlns="http://www.w3.org/2000/svg">
<path d="M14.0898 26.6309L17.8904 45.6729L32.1078 47.6742L46.3251 49.6754L14.0898 26.6309Z" fill="#FFB8C3"/>
<path opacity="0.6" d="M14.0898 26.6309L17.8904 45.6729L39.4119 44.3632L14.0898 26.6309Z" fill="#FFF6F8"/>
<path d="M79.3555 140.001L117.803 124.915L107.563 94.1133L79.3555 140.001Z" fill="#FFB8C3"/>
<path opacity="0.6" d="M88.6406 124.915H117.815L107.575 94.1133L88.6406 124.915Z" fill="#FFF6F8"/>
<path d="M117.806 124.916L29.2106 111.484L18.582 50.1L92.7933 49.6797L117.806 124.916Z" fill="#E20024"/>
<path opacity="0.6" d="M112.333 108.454L29.2106 111.484L18.582 50.1L92.7933 49.6797L112.333 108.454Z" fill="#FFF6F8"/>
<path d="M210.621 94.0967L29.2106 111.485L18.582 50.101L209.202 21.375L210.621 94.0967Z" fill="#FFCAD7"/>
<path d="M60.6602 123.051L74.8143 125.528L63.585 133.659L60.6602 123.051Z" fill="#FF0000"/>
<path d="M180.651 129.008L175.305 115.67L184.537 124.813L180.651 129.008Z" fill="#FF0000"/>
<path d="M219.972 58.7869L211.91 54.8176L220.077 51.9062L219.972 58.7869Z" fill="#FF0000"/>
<path d="M12.0524 56.6713L0 48.9199V57.5623L12.0524 56.6713Z" fill="url(#paint0_linear_2837_6980)"/>
<path d="M12.0524 56.6713L0 48.9199V57.5623L12.0524 56.6713Z" fill="#FF0000"/>
<path d="M115.523 14.8632L125.308 2.39461L117.004 0L115.523 14.8632Z" fill="#FF0000"/>
<path d="M199.516 17.5093L212.663 8.65906L205.5 3.82422L199.516 17.5093Z" fill="#FF0000"/>
<path d="M214.807 82.0664L199.449 115.092L214.807 105.165V82.0664Z" fill="url(#paint1_linear_2837_6980)"/>
<path opacity="0.6" d="M214.801 82.0664L202.168 109.231L214.801 105.165V82.0664Z" fill="url(#paint2_linear_2837_6980)"/>
<path opacity="0.6" d="M210.487 84.6016L129.746 90.485L133.021 101.531L210.623 94.0924L210.487 84.6016Z" fill="#FFF6F8"/>
<path d="M132.25 88.0182L139.964 115.34L214.802 105.165V82.0664L132.25 88.0182Z" fill="#E20024"/>
<path d="M152.226 104.83C151.324 104.924 150.469 104.858 149.659 104.634C148.861 104.409 148.152 104.055 147.533 103.573C146.912 103.079 146.406 102.481 146.014 101.781C145.623 101.081 145.382 100.297 145.292 99.4292C145.203 98.5611 145.278 97.7444 145.517 96.979C145.757 96.2136 146.131 95.5312 146.639 94.9317C147.145 94.321 147.766 93.8238 148.501 93.4402C149.236 93.0565 150.06 92.8174 150.973 92.723C151.875 92.6297 152.72 92.6961 153.506 92.9224C154.303 93.1362 155.012 93.4901 155.633 93.9842C156.264 94.4658 156.769 95.0573 157.15 95.7585C157.541 96.4586 157.782 97.2483 157.873 98.1276C157.964 99.0069 157.89 99.8293 157.65 100.595C157.421 101.359 157.048 102.047 156.53 102.659C156.023 103.258 155.401 103.75 154.666 104.134C153.941 104.505 153.128 104.737 152.226 104.83ZM152.07 103.325C152.724 103.258 153.316 103.083 153.845 102.8C154.385 102.516 154.837 102.15 155.201 101.703C155.575 101.242 155.846 100.724 156.014 100.149C156.194 99.5718 156.25 98.9564 156.182 98.3026C156.115 97.6487 155.934 97.0579 155.64 96.53C155.357 96.0009 154.987 95.555 154.527 95.1923C154.078 94.8172 153.56 94.5461 152.973 94.3789C152.398 94.2106 151.783 94.1603 151.129 94.2279C150.464 94.2967 149.861 94.473 149.321 94.7568C148.792 95.0394 148.34 95.4108 147.966 95.8711C147.591 96.3201 147.314 96.833 147.134 97.4099C146.966 97.9856 146.916 98.6004 146.983 99.2542C147.051 99.9081 147.226 100.5 147.509 101.029C147.803 101.556 148.18 102.007 148.64 102.381C149.099 102.744 149.616 103.01 150.192 103.178C150.779 103.345 151.405 103.394 152.07 103.325ZM161.07 103.779L160.061 94.0217C159.97 93.1424 160.151 92.4173 160.605 91.8462C161.068 91.2627 161.774 90.922 162.721 90.824C163.07 90.7879 163.407 90.7986 163.732 90.8561C164.068 90.9012 164.357 91.0023 164.601 91.1593L164.239 92.4444C164.055 92.3267 163.853 92.245 163.632 92.1995C163.41 92.1428 163.18 92.1267 162.944 92.1512C162.47 92.2001 162.123 92.3727 161.903 92.6689C161.682 92.9539 161.598 93.3556 161.652 93.8742L161.776 95.0748L161.887 95.8153L162.693 103.611L161.07 103.779ZM158.759 96.3098L158.621 94.9739L164.337 94.3827L164.475 95.7185L158.759 96.3098ZM167.048 103.16L166.039 93.4033C165.948 92.524 166.129 91.7988 166.583 91.2278C167.046 90.6443 167.752 90.3036 168.699 90.2056C169.048 90.1695 169.385 90.1801 169.71 90.2377C170.045 90.2828 170.335 90.3838 170.579 90.5409L170.216 91.826C170.033 91.7082 169.831 91.6266 169.61 91.5811C169.388 91.5244 169.158 91.5082 168.921 91.5327C168.448 91.5817 168.101 91.7543 167.881 92.0505C167.66 92.3355 167.576 92.7372 167.63 93.2558L167.754 94.4564L167.865 95.1969L168.671 102.992L167.048 103.16ZM164.737 95.6914L164.599 94.3555L170.314 93.7642L170.453 95.1001L164.737 95.6914ZM176.642 102.27C175.683 102.369 174.818 102.26 174.044 101.941C173.282 101.621 172.662 101.138 172.185 100.492C171.719 99.8456 171.44 99.0769 171.348 98.1863C171.256 97.2957 171.366 96.4868 171.678 95.7595C172.002 95.031 172.482 94.4401 173.119 93.9869C173.765 93.5212 174.517 93.244 175.374 93.1553C176.242 93.0655 177.028 93.1779 177.733 93.4924C178.438 93.8068 179.012 94.2943 179.457 94.9548C179.911 95.6028 180.186 96.389 180.282 97.3134C180.289 97.381 180.291 97.4605 180.289 97.5519C180.299 97.6421 180.302 97.7272 180.299 97.8073L172.672 98.5962L172.552 97.4294L179.333 96.728L178.715 97.202C178.667 96.6259 178.495 96.1252 178.201 95.7C177.906 95.2747 177.526 94.9608 177.061 94.7583C176.606 94.5433 176.091 94.4656 175.516 94.525C174.952 94.5834 174.464 94.7649 174.051 95.0697C173.637 95.3631 173.33 95.7538 173.13 96.2417C172.928 96.7183 172.858 97.2497 172.919 97.8359L172.947 98.1064C173.008 98.7039 173.199 99.2254 173.519 99.6709C173.848 100.104 174.274 100.424 174.797 100.632C175.32 100.84 175.903 100.911 176.545 100.845C177.075 100.79 177.545 100.65 177.955 100.425C178.376 100.2 178.731 99.8893 179.021 99.4947L180.025 100.45C179.668 100.966 179.199 101.379 178.615 101.69C178.044 102 177.386 102.193 176.642 102.27ZM182.994 101.511L182.067 92.5484L183.623 92.3874L183.875 94.8224L183.66 94.2294C183.844 93.5837 184.212 93.0671 184.764 92.6796C185.316 92.292 186.021 92.0539 186.878 91.9653L187.04 93.5379C186.972 93.5336 186.903 93.5349 186.836 93.5419C186.779 93.5478 186.723 93.5536 186.667 93.5594C185.799 93.6492 185.138 93.9797 184.684 94.5507C184.23 95.1218 184.054 95.8977 184.156 96.8784L184.618 101.343L182.994 101.511ZM192.494 100.63C191.75 100.707 191.03 100.679 190.332 100.546C189.646 100.412 189.096 100.218 188.683 99.965L189.226 98.6099C189.636 98.8295 190.132 99.0004 190.715 99.1224C191.297 99.2445 191.881 99.2752 192.467 99.2145C193.223 99.1364 193.753 98.9733 194.058 98.7253C194.374 98.4761 194.512 98.1599 194.472 97.7766C194.443 97.4948 194.319 97.2855 194.1 97.1486C193.88 97.0118 193.597 96.9214 193.251 96.8775C192.916 96.8324 192.543 96.8027 192.131 96.7883C191.718 96.7626 191.304 96.7257 190.889 96.6775C190.473 96.618 190.087 96.5212 189.731 96.3871C189.374 96.2417 189.078 96.0274 188.844 95.744C188.608 95.4493 188.464 95.0427 188.41 94.5241C188.354 93.983 188.457 93.4938 188.72 93.0565C188.982 92.6192 189.379 92.2648 189.909 91.9935C190.449 91.7097 191.103 91.5282 191.869 91.4489C192.455 91.3882 193.055 91.4003 193.667 91.485C194.29 91.5573 194.807 91.7033 195.217 91.9229L194.656 93.2798C194.223 93.0512 193.781 92.9089 193.33 92.853C192.88 92.797 192.435 92.7917 191.996 92.8372C191.285 92.9107 190.768 93.0839 190.443 93.3568C190.117 93.6184 189.972 93.9296 190.01 94.2903C190.041 94.5947 190.167 94.8209 190.388 94.969C190.618 95.1047 190.901 95.2007 191.238 95.2571C191.585 95.3123 191.965 95.3527 192.378 95.3784C192.79 95.3927 193.204 95.4297 193.62 95.4891C194.035 95.5373 194.415 95.6291 194.76 95.7643C195.115 95.8985 195.41 96.1072 195.645 96.3906C195.89 96.6728 196.039 97.0676 196.092 97.5749C196.148 98.116 196.039 98.6001 195.764 99.0273C195.489 99.4546 195.076 99.8106 194.524 100.096C193.971 100.369 193.295 100.547 192.494 100.63Z" fill="white"/>
<path d="M37.3723 82.8088L35.2113 61.9203L44.0143 61.0096C46.2424 60.7791 48.2472 61.014 50.0288 61.7144C51.8302 62.4128 53.2797 63.4994 54.3773 64.9743C55.4948 66.4471 56.1606 68.218 56.3746 70.2869C56.5886 72.3559 56.2995 74.2256 55.5072 75.896C54.7348 77.5643 53.5384 78.9246 51.9181 79.977C50.3177 81.0272 48.4034 81.6676 46.1753 81.8981L37.3723 82.8088ZM40.0878 79.904L45.7277 79.3205C47.4584 79.1414 48.9165 78.6588 50.1019 77.8727C51.3072 77.0845 52.1973 76.0675 52.7721 74.8217C53.3449 73.5561 53.551 72.1474 53.3905 70.5956C53.2279 69.024 52.7378 67.6874 51.9201 66.5857C51.1024 65.484 50.0229 64.6707 48.6818 64.1459C47.3606 63.6191 45.8346 63.4452 44.1038 63.6243L38.4639 64.2077L40.0878 79.904ZM61.6081 80.3016L59.9719 64.486L62.8366 64.1896L64.4728 80.0052L61.6081 80.3016ZM61.0894 61.294C60.5323 61.3516 60.0463 61.221 59.6313 60.902C59.2362 60.5809 59.0118 60.1618 58.9583 59.6446C58.9028 59.1074 59.0355 58.6413 59.3565 58.2462C59.6975 57.849 60.1465 57.6216 60.7035 57.5639C61.2605 57.5063 61.7366 57.638 62.1317 57.9591C62.5447 58.2581 62.7779 58.6663 62.8314 59.1836C62.887 59.7207 62.7553 60.1968 62.4363 60.6118C62.1153 61.0069 61.6663 61.2343 61.0894 61.294ZM74.4968 79.1491C73.1838 79.285 71.912 79.2356 70.6813 79.001C69.4705 78.7643 68.5002 78.4224 67.7703 77.9751L68.7293 75.5837C69.453 75.9713 70.3287 76.2728 71.3563 76.4882C72.3839 76.7036 73.415 76.7578 74.4495 76.6507C75.7824 76.5129 76.7177 76.2251 77.2555 75.7874C77.8132 75.3477 78.0571 74.7896 77.9871 74.1132C77.9357 73.6159 77.7165 73.2465 77.3296 73.005C76.9427 72.7635 76.4436 72.6041 75.8324 72.5265C75.2411 72.447 74.5822 72.3945 73.8557 72.3691C73.1272 72.3238 72.3966 72.2587 71.664 72.1736C70.9293 72.0687 70.2481 71.8979 69.6204 71.6612C68.9906 71.4046 68.4689 71.0263 68.0553 70.5262C67.6396 70.0062 67.3844 69.2887 67.2897 68.3736C67.1909 67.4187 67.373 66.5553 67.8361 65.7836C68.2991 65.0118 68.9985 64.3866 69.9342 63.9077C70.8877 63.407 72.0409 63.0866 73.3937 62.9466C74.4281 62.8396 75.4859 62.8609 76.5671 63.0104C77.666 63.138 78.5774 63.3956 79.3011 63.7832L78.3123 66.1777C77.5467 65.7743 76.7667 65.5232 75.9723 65.4244C75.1779 65.3257 74.3928 65.3164 73.617 65.3967C72.3637 65.5263 71.4503 65.8319 70.8768 66.3135C70.3012 66.7752 70.0464 67.3243 70.1122 67.9609C70.1678 68.4981 70.3901 68.8973 70.779 69.1587C71.1858 69.3981 71.6859 69.5675 72.2793 69.667C72.8926 69.7644 73.5635 69.8357 74.292 69.881C75.0185 69.9064 75.7491 69.9716 76.4838 70.0765C77.2164 70.1616 77.8866 70.3235 78.4944 70.5622C79.1221 70.7988 79.6428 71.1672 80.0564 71.6673C80.49 72.1653 80.7531 72.862 80.8457 73.7572C80.9445 74.7121 80.7514 75.5665 80.2664 76.3204C79.7814 77.0743 79.0522 77.7027 78.0787 78.2055C77.1032 78.6885 75.9093 79.003 74.4968 79.1491ZM91.8037 77.3587C90.1923 77.5254 88.714 77.3265 87.3688 76.7619C86.0434 76.1953 84.9599 75.3422 84.1182 74.2028C83.2765 73.0634 82.7743 71.7078 82.6117 70.1362C82.4491 68.5646 82.6632 67.135 83.2538 65.8474C83.8444 64.5598 84.7314 63.5129 85.9148 62.7069C87.1159 61.8789 88.5222 61.3815 90.1336 61.2148C91.566 61.0667 92.869 61.2234 94.0428 61.6851C95.2343 62.1248 96.1961 62.8698 96.9281 63.92L94.8948 65.5479C94.2973 64.8256 93.602 64.3244 92.809 64.0446C92.0338 63.7427 91.2185 63.6361 90.3631 63.7246C89.3286 63.8316 88.4272 64.1561 87.6589 64.698C86.8906 65.2399 86.3109 65.9534 85.9199 66.8383C85.5269 67.7033 85.389 68.7028 85.5063 69.8368C85.6236 70.9707 85.9642 71.9308 86.5281 72.7169C87.092 73.5031 87.8054 74.0827 88.6684 74.4559C89.5314 74.8291 90.4801 74.9622 91.5146 74.8552C92.37 74.7667 93.1473 74.5053 93.8463 74.071C94.5631 73.6149 95.1401 72.9721 95.577 72.1427L97.8974 73.29C97.3939 74.448 96.606 75.384 95.5338 76.0982C94.4795 76.7903 93.2361 77.2105 91.8037 77.3587ZM108.499 75.6315C106.907 75.7962 105.459 75.5941 104.154 75.0255C102.848 74.4568 101.774 73.6027 100.933 72.4633C100.089 71.304 99.5868 69.9484 99.4263 68.3967C99.2637 66.8251 99.4777 65.3955 100.068 64.1079C100.659 62.8203 101.536 61.7745 102.699 60.9705C103.861 60.1466 105.237 59.6523 106.829 59.4877C108.4 59.3251 109.839 59.5281 111.144 60.0968C112.468 60.6436 113.54 61.4877 114.362 62.6292C115.202 63.7487 115.704 65.1042 115.869 66.6957C116.031 68.2673 115.817 69.697 115.226 70.9846C114.656 72.2701 113.78 73.3259 112.598 74.1518C111.437 74.9757 110.071 75.4689 108.499 75.6315ZM108.24 73.1249C109.254 73.0199 110.136 72.6975 110.884 72.1576C111.652 71.6157 112.222 70.9033 112.593 70.0204C112.962 69.1176 113.089 68.1092 112.974 66.9952C112.857 65.8612 112.527 64.9101 111.985 64.1418C111.441 63.3536 110.738 62.7729 109.875 62.3997C109.032 62.0245 108.103 61.8893 107.088 61.9943C106.074 62.0993 105.192 62.4217 104.444 62.9616C103.695 63.5014 103.125 64.2139 102.734 65.0988C102.341 65.9638 102.204 66.9633 102.321 68.0973C102.436 69.2113 102.777 70.1714 103.343 70.9774C103.907 71.7636 104.61 72.3443 105.453 72.7195C106.296 73.0947 107.225 73.2299 108.24 73.1249ZM127.321 73.6843C125.969 73.8242 124.749 73.699 123.663 73.3087C122.597 72.9163 121.723 72.2427 121.042 71.2878C120.377 70.3109 119.965 69.0466 119.805 67.4949L118.863 58.3935L121.728 58.0971L122.635 66.8703C122.796 68.422 123.284 69.5478 124.101 70.2475C124.937 70.9451 126.031 71.224 127.384 71.084C128.379 70.9811 129.224 70.6926 129.919 70.2186C130.611 69.7247 131.117 69.0692 131.434 68.2522C131.75 67.4153 131.85 66.4398 131.735 65.3258L130.889 57.1494L133.754 56.853L135.39 72.6686L132.674 72.9496L132.233 68.6823L132.798 69.77C132.39 70.8779 131.698 71.7738 130.723 72.4577C129.748 73.1416 128.615 73.5505 127.321 73.6843ZM147.637 55.266C148.93 55.1322 150.089 55.2636 151.116 55.6601C152.162 56.0545 153.016 56.7302 153.678 57.6872C154.34 58.6441 154.751 59.8985 154.912 61.4502L155.853 70.5516L152.989 70.848L152.081 62.0748C151.923 60.543 151.425 59.4282 150.589 58.7306C149.773 58.0309 148.688 57.751 147.335 57.8909C146.321 57.9959 145.456 58.2864 144.741 58.7625C144.026 59.2386 143.5 59.8862 143.163 60.7053C142.845 61.5223 142.746 62.5077 142.865 63.6616L143.708 71.8081L140.843 72.1044L139.207 56.2888L141.953 56.0048L142.394 60.2721L141.829 59.1844C142.239 58.0964 142.952 57.2084 143.966 56.5203C144.981 55.8323 146.204 55.4142 147.637 55.266ZM166.604 69.6203C165.013 69.785 163.735 69.4849 162.771 68.72C161.808 67.9551 161.243 66.7769 161.079 65.1854L159.578 50.6828L162.443 50.3865L163.931 64.7697C164.02 65.6251 164.296 66.26 164.762 66.6743C165.247 67.0866 165.887 67.2516 166.683 67.1693C167.578 67.0767 168.298 66.7508 168.844 66.1917L169.952 68.1581C169.553 68.5814 169.055 68.9144 168.457 69.1573C167.878 69.3981 167.261 69.5524 166.604 69.6203ZM157.495 56.7796L157.251 54.4222L167.337 53.3787L167.581 55.7362L157.495 56.7796Z" fill="#002441"/>
<path d="M14.0898 26.2422L17.2216 47.0518L77.7751 33.5957L79.5764 9.02734L14.0898 26.2422Z" fill="url(#paint3_linear_2837_6980)"/>
<path d="M14.0898 26.2422L17.2216 47.0518L77.7751 33.5957L79.5764 9.02734L14.0898 26.2422Z" fill="#E20024"/>
<path d="M24.0469 38.1943L21.8628 26.4965L27.1101 25.5168C28.4581 25.2651 29.5452 25.3446 30.3713 25.7553C31.1953 26.1548 31.6946 26.8225 31.8693 27.7583C31.9879 28.3934 31.9429 28.9552 31.7344 29.4437C31.537 29.9302 31.2206 30.3352 30.7852 30.6586C30.3499 30.982 29.8537 31.1957 29.2966 31.2997L29.5038 30.7422C30.1723 30.6174 30.7846 30.6241 31.3407 30.7624C31.8969 30.9007 32.368 31.1701 32.7541 31.5707C33.1381 31.9602 33.3925 32.4891 33.5173 33.1576C33.7045 34.1603 33.4713 35.0108 32.8178 35.7093C32.1732 36.3946 31.1101 36.8756 29.6284 37.1522L24.0469 38.1943ZM25.4652 36.5287L29.3088 35.8111C30.2335 35.6384 30.9118 35.3504 31.3438 34.9469C31.7757 34.5434 31.9293 34.0075 31.8045 33.339C31.6776 32.6594 31.34 32.2094 30.7915 31.989C30.2431 31.7686 29.5065 31.7447 28.5818 31.9174L24.5879 32.6631L24.3351 31.3095L27.9113 30.6418C28.758 30.4837 29.3862 30.205 29.7959 29.8057C30.2056 29.4064 30.3521 28.8948 30.2357 28.2709C30.1192 27.647 29.7979 27.2228 29.2717 26.9982C28.7455 26.7736 28.0591 26.7404 27.2124 26.8984L23.7866 27.5381L25.4652 36.5287ZM40.4231 35.2405C39.4761 35.4173 38.6042 35.3784 37.8072 35.1236C37.0214 34.8668 36.3645 34.4361 35.8366 33.8314C35.3198 33.2246 34.9792 32.4811 34.8149 31.601C34.6505 30.7209 34.6943 29.9057 34.9462 29.1553C35.2093 28.403 35.6397 27.775 36.2374 27.2714C36.8442 26.7546 37.5709 26.4171 38.4176 26.259C39.2755 26.0988 40.0684 26.1468 40.7964 26.4029C41.5245 26.6589 42.1368 27.098 42.6334 27.7201C43.1391 28.3289 43.4772 29.0902 43.6477 30.0037C43.6602 30.0705 43.6692 30.1496 43.6747 30.2408C43.6914 30.3299 43.7014 30.4145 43.7048 30.4946L36.168 31.9017L35.9528 30.7487L42.654 29.4975L42.0771 30.0203C41.9822 29.45 41.7705 28.9649 41.4422 28.5651C41.1139 28.1652 40.7097 27.8833 40.2294 27.7193C39.7582 27.5421 39.2385 27.5065 38.6703 27.6126C38.1133 27.7166 37.6415 27.9373 37.2548 28.2747C36.8661 28.6009 36.5918 29.0153 36.432 29.5178C36.2701 30.0092 36.2432 30.5446 36.3514 31.1239L36.4013 31.3913C36.5116 31.9817 36.7441 32.486 37.0988 32.9039C37.4626 33.3087 37.9135 33.5935 38.4516 33.7582C38.9896 33.9229 39.5761 33.946 40.2112 33.8274C40.7348 33.7296 41.1916 33.5521 41.5817 33.2948C41.9829 33.0354 42.3118 32.6973 42.5683 32.2805L43.6474 33.1512C43.3337 33.694 42.8989 34.1441 42.3431 34.5016C41.7984 34.8569 41.1584 35.1032 40.4231 35.2405ZM49.2517 33.5921C48.5164 33.7294 47.7958 33.7602 47.09 33.6845C46.3952 33.6066 45.8314 33.4583 45.3985 33.2393L45.8298 31.8445C46.2565 32.03 46.7649 32.1599 47.3553 32.2341C47.9456 32.3084 48.5304 32.2914 49.1097 32.1832C49.8562 32.0439 50.3712 31.8382 50.6547 31.5662C50.9494 31.2921 51.0614 30.9657 50.9907 30.5869C50.9387 30.3084 50.7979 30.1099 50.5682 29.9913C50.3386 29.8728 50.0493 29.8057 49.7006 29.7902C49.3629 29.7725 48.9884 29.7733 48.5769 29.7924C48.1633 29.8005 47.7477 29.7974 47.33 29.7831C46.9102 29.7577 46.5176 29.6927 46.1522 29.588C45.7847 29.4721 45.4726 29.2825 45.2159 29.0192C44.9571 28.7447 44.7799 28.3512 44.6842 27.8387C44.5843 27.3039 44.6474 26.8079 44.8733 26.3507C45.0992 25.8935 45.4654 25.5081 45.9717 25.1945C46.4872 24.8676 47.1237 24.6335 47.8813 24.4921C48.4606 24.3839 49.059 24.3471 49.6765 24.3817C50.3031 24.4031 50.8297 24.5065 51.2563 24.692L50.8083 26.09C50.3573 25.8975 49.9052 25.7917 49.4519 25.7725C48.9987 25.7534 48.5549 25.7844 48.1204 25.8655C47.4185 25.9966 46.9167 26.2113 46.6151 26.5097C46.3113 26.797 46.1927 27.1189 46.2593 27.4754C46.3154 27.7762 46.4594 27.9915 46.6911 28.1212C46.9319 28.2376 47.2222 28.3102 47.5619 28.339C47.9128 28.3658 48.295 28.3751 48.7085 28.3671C49.12 28.3479 49.5356 28.351 49.9554 28.3764C50.3731 28.3906 50.7591 28.4511 51.1134 28.5579C51.4788 28.6626 51.7899 28.8467 52.0466 29.11C52.3144 29.3713 52.4951 29.7526 52.5887 30.2539C52.6886 30.7887 52.6189 31.2802 52.3798 31.7283C52.1407 32.1765 51.7578 32.5651 51.2312 32.894C50.7026 33.2117 50.0427 33.4444 49.2517 33.5921ZM58.125 31.9354C57.2337 32.1018 56.4983 31.9912 55.9186 31.6037C55.339 31.2162 54.966 30.5768 54.7996 29.6855L53.2832 21.5639L54.8875 21.2643L56.3914 29.3191C56.4808 29.7982 56.6664 30.144 56.9482 30.3566C57.2412 30.567 57.6105 30.6307 58.0561 30.5475C58.5574 30.4539 58.9492 30.2366 59.2314 29.8957L59.9481 30.9552C59.7425 31.2126 59.4764 31.4237 59.1497 31.5884C58.8342 31.7511 58.4926 31.8668 58.125 31.9354ZM52.3876 25.1034L52.1411 23.7832L57.7895 22.7286L58.036 24.0488L52.3876 25.1034Z" fill="white"/>
<defs>
<linearGradient id="paint0_linear_2837_6980" x1="15.0003" y1="55.0384" x2="-21.5248" y2="50.6621" gradientUnits="userSpaceOnUse">
<stop offset="0.0079" stop-color="#FF6F0A"/>
<stop offset="1" stop-color="#FFCA00"/>
</linearGradient>
<linearGradient id="paint1_linear_2837_6980" x1="187.921" y1="118.379" x2="218.302" y2="90.3967" gradientUnits="userSpaceOnUse">
<stop stop-color="#7C0EA7"/>
<stop offset="0.9943" stop-color="#00005E"/>
</linearGradient>
<linearGradient id="paint2_linear_2837_6980" x1="193.707" y1="113.044" x2="218.697" y2="90.0273" gradientUnits="userSpaceOnUse">
<stop stop-color="#7C0EA7"/>
<stop offset="0.9943" stop-color="#00005E"/>
</linearGradient>
<linearGradient id="paint3_linear_2837_6980" x1="85.0184" y1="18.2976" x2="10.9212" y2="28.7484" gradientUnits="userSpaceOnUse">
<stop offset="0.0121" stop-color="#E228A1"/>
<stop offset="0.9971" stop-color="#4300AB"/>
</linearGradient>
</defs>
</svg>
